<svg viewBox="0 0 13 13" xmlns="http://www.w3.org/2000/svg">
    <path d="M10.9838 0.0228882H1.83942C0.806996 0.0228882 0.0203857 0.8095 0.0203857 1.84193V10.9863C0.0203857 12.0187 0.806996 12.8053 1.83942 12.8053H10.9838C12.0162 12.8053 12.8028 12.0187 12.8028 10.9863V1.84193C12.8028 0.8095 12.0162 0.0228882 10.9838 0.0228882ZM6.4116 10.2488C8.52562 10.2488 10.2463 8.57729 10.2463 6.5616C10.2463 6.21745 10.1972 5.82415 10.0988 5.52917H11.1804V10.7405C11.1804 10.9863 10.9838 11.2321 10.6888 11.2321H2.13441C1.88859 11.2321 1.64277 11.0354 1.64277 10.7405V5.48H2.77353C2.6752 5.82415 2.62604 6.16829 2.62604 6.51243C2.57687 8.57729 4.29759 10.2488 6.4116 10.2488ZM6.4116 8.77394C5.03503 8.77394 3.95344 7.69235 3.95344 6.36494C3.95344 5.03754 5.03503 3.95595 6.4116 3.95595C7.78817 3.95595 8.86976 5.03754 8.86976 6.36494C8.86976 7.74151 7.78817 8.77394 6.4116 8.77394ZM11.1313 3.51348C11.1313 3.80845 10.8855 4.05427 10.5905 4.05427H9.21391C8.91893 4.05427 8.67311 3.80845 8.67311 3.51348V2.18607C8.67311 1.89109 8.91893 1.64527 9.21391 1.64527H10.5905C10.8855 1.64527 11.1313 1.89109 11.1313 2.18607V3.51348Z"/>
</svg>
