<svg viewBox="0 0 119 20" xmlns="http://www.w3.org/2000/svg">
    <g clip-path="url(#clip0)">
        <path d="M5.80205 1.30948V7.38091H4.46758V2.49995H1.33447V7.32138H0V1.30948H5.80205Z"/>
        <path d="M11.1981 1.30948C12.5906 1.30948 13.635 2.26186 13.635 3.69043C13.635 5.119 12.5906 6.01186 11.1981 6.01186H9.05139V7.38091H7.71692V1.30948H11.1981ZM9.05139 4.76186H11.1401C11.8364 4.76186 12.3005 4.40472 12.3005 3.69043C12.3005 2.97615 11.8364 2.55948 11.1401 2.55948H9.05139V4.76186Z"/>
        <path d="M18.6246 7.49995C16.826 7.49995 15.3174 6.24995 15.3174 4.34519C15.3174 2.44043 16.826 1.19043 18.6246 1.19043C20.4232 1.19043 21.9318 2.44043 21.9318 4.34519C21.9318 6.24995 20.4232 7.49995 18.6246 7.49995ZM18.6246 6.369C19.727 6.369 20.5973 5.59519 20.5973 4.34519C20.5973 3.09519 19.727 2.32138 18.6246 2.32138C17.5222 2.32138 16.6519 3.09519 16.6519 4.34519C16.6519 5.59519 17.5222 6.369 18.6246 6.369Z"/>
        <path d="M29.1842 1.30948V2.55948H25.1808V3.69043H28.778V4.94043H25.1808V6.13091H29.3582V7.38091H23.7883V1.30948H29.1842Z"/>
        <path d="M32.4913 1.30948V3.57138H34.2319L35.7404 1.30948H37.249L35.3343 4.1071L37.365 7.38091H35.7984L34.2319 4.76186H32.4913V7.32138H31.1568V1.30948H32.4913Z"/>
        <path d="M44.9078 1.30948V2.55948H42.529V7.38091H41.1945V2.49995H38.8157V1.30948H44.9078Z"/>
        <path d="M47.9829 1.30948V3.63091H51.2901V1.30948H52.6245V7.38091H51.2901V4.82138H47.9829V7.32138H46.6484V1.30948H47.9829Z"/>
        <path d="M59.0649 1.30948L61.5597 7.38091H60.1672L59.7611 6.48805H56.1058L55.6997 7.38091H54.2491L56.802 1.30948H59.0649ZM56.628 5.23805H59.2389L58.1945 2.49995H57.7304L56.628 5.23805Z"/>
        <path d="M69.0444 7.38091H67.7099V6.01186H65.5051L64.8089 7.38091H63.3584L64.2867 5.71424C63.5905 5.3571 63.1263 4.64281 63.1263 3.69043C63.1263 2.26186 64.1707 1.30948 65.5632 1.30948H69.0444V7.38091ZM65.5632 2.55948C64.8669 2.55948 64.4028 2.97615 64.4028 3.69043C64.4028 4.40472 64.8669 4.76186 65.5632 4.76186H67.6519V2.55948H65.5632Z"/>
        <path d="M6.67218 12.7975V15.0594H8.41279L9.92133 12.7975H11.4879L9.5732 15.5951L11.6039 18.8689H10.0374L8.47081 16.3094H6.7302V18.8689H5.33771V12.7975H6.67218Z"/>
        <path d="M16.0138 18.9881C14.2151 18.9881 12.7066 17.7381 12.7066 15.8333C12.7066 13.9286 14.2151 12.6786 16.0138 12.6786C17.8124 12.6786 19.3209 13.9286 19.3209 15.8333C19.3209 17.7381 17.7544 18.9881 16.0138 18.9881ZM16.0138 17.7976C17.1162 17.7976 17.9865 17.0238 17.9865 15.7738C17.9865 14.5238 17.1162 13.75 16.0138 13.75C14.9114 13.75 14.0411 14.5238 14.0411 15.7738C14.0411 17.0833 14.8534 17.7976 16.0138 17.7976Z"/>
        <path d="M22.918 12.7975L25.0068 17.2022H25.0648L27.2116 12.7975H28.8942V18.8689H27.5597V14.6427H27.5017L25.529 18.8094H24.4266L22.5119 14.5832H22.4539V18.8094H21.1774V12.7975H22.918Z"/>
        <path d="M36.6688 12.7975V18.8689H35.3343V14.0475H32.2012V18.8689H30.8668V12.7975H36.6688Z"/>
        <path d="M43.1091 12.7975L45.604 18.8689H44.2115L43.8053 17.976H40.15L39.7439 18.8689H38.2934L40.8463 12.7975H43.1091ZM40.6722 16.726H43.2832L42.2388 13.9879H41.7746L40.6722 16.726Z"/>
        <path d="M48.679 12.7975V15.1189H51.9862V12.7975H53.3207V18.8689H51.9862V16.3689H48.679V18.8689H47.3445V12.7975H48.679Z"/>
        <path d="M56.57 12.7975V17.0236L60.1092 12.7975H61.3857V18.8689H60.0512V14.7022L56.57 18.8689H55.2935V12.7975H56.57Z"/>
        <path d="M69.0444 18.8096H67.7099V17.4406H65.5051L64.8089 18.8096H63.3584L64.2867 17.143C63.5905 16.7858 63.1263 16.0715 63.1263 15.1191C63.1263 13.6906 64.1707 12.7382 65.5632 12.7382H69.0444V18.8096ZM65.5632 14.0477C64.8669 14.0477 64.4028 14.4644 64.4028 15.1787C64.4028 15.893 64.8669 16.2501 65.5632 16.2501H67.6519V14.0477H65.5632Z"/>
        <path d="M118.826 7.91669H114.532V19.9405H118.826V7.91669Z"/>
        <path d="M110.123 9.16667V5.05952C112.85 5.05952 115.055 2.79762 115.055 0H119.058C119 5.05952 114.997 9.16667 110.123 9.16667Z"/>
        <path d="M90.0477 12.619L81.1126 0H76.8191V20H81.1126V7.38095L90.0477 20H94.3412V0H90.0477V12.619Z"/>
        <path d="M105.887 16.6072H96.3719V20.0001H105.887V16.6072Z"/>
        <path d="M101.13 15.4167C103.625 15.4167 105.655 13.3333 105.655 10.7738C105.655 8.21428 103.625 6.13095 101.13 6.13095C98.6348 6.13095 96.6041 8.21428 96.6041 10.7738C96.6041 13.3333 98.6348 15.4167 101.13 15.4167ZM101.13 9.70238C101.71 9.70238 102.232 10.1786 102.232 10.8333C102.232 11.4286 101.768 11.9643 101.13 11.9643C100.549 11.9643 100.027 11.4881 100.027 10.8333C100.027 10.1786 100.549 9.70238 101.13 9.70238Z"/>
    </g>
    <defs>
        <clipPath id="clip0">
            <rect width="119" height="20" fill="white"/>
        </clipPath>
    </defs>
</svg>
