<svg viewBox="0 0 14 11" xmlns="http://www.w3.org/2000/svg">
    <path d="M13.6684 4.22095C13.6684 3.9293 13.6198 3.58905 13.6198 3.20018C13.5712 2.81132 13.5226 2.42245 13.474 2.08219C13.3768 1.69333 13.2309 1.40168 12.9393 1.15864C12.6962 0.9156 12.356 0.769771 12.0157 0.721163C10.8977 0.575339 9.24507 0.526733 7.00909 0.526733C4.77311 0.526733 3.07182 0.575339 2.00244 0.721163C1.66218 0.769771 1.32193 0.9156 1.07888 1.15864C0.835844 1.40168 0.641408 1.69333 0.544192 2.08219C0.446975 2.42245 0.398373 2.76271 0.398373 3.20018C0.349765 3.58905 0.349762 3.9293 0.349762 4.22095C0.349762 4.5126 0.349762 4.85286 0.349762 5.33894C0.349762 5.82502 0.349762 6.21389 0.349762 6.45693C0.349762 6.74858 0.398373 7.08884 0.398373 7.47771C0.446981 7.86657 0.495584 8.25543 0.544192 8.59569C0.641408 8.98456 0.787236 9.27621 1.07888 9.51925C1.32193 9.76229 1.66218 9.90811 2.00244 9.95672C3.12043 10.1025 4.77311 10.1512 7.00909 10.1512C9.24507 10.1512 10.9463 10.1025 12.0157 9.95672C12.356 9.90811 12.6962 9.76229 12.9393 9.51925C13.1823 9.27621 13.3768 8.98456 13.474 8.59569C13.5712 8.25543 13.6198 7.91518 13.6198 7.47771C13.6684 7.08884 13.6684 6.74858 13.6684 6.45693C13.6684 6.16528 13.6684 5.82502 13.6684 5.33894C13.6684 4.85286 13.6684 4.46399 13.6684 4.22095ZM9.58532 5.72781L5.74528 8.10961C5.69667 8.15822 5.59945 8.20683 5.50223 8.20683C5.40502 8.20683 5.35641 8.20683 5.25919 8.15822C5.11337 8.061 5.01615 7.91518 5.01615 7.72075V2.90853C5.01615 2.7141 5.11337 2.56828 5.25919 2.47106C5.40502 2.37384 5.59945 2.37384 5.74528 2.47106L9.58532 4.85286C9.73114 4.95008 9.82836 5.0959 9.82836 5.24173C9.82836 5.38755 9.73114 5.63059 9.58532 5.72781Z"/>
</svg>