<?xml version="1.0" encoding="UTF-8"?><!DOCTYPE svg PUBLIC "-//W3C//DTD SVG 1.1//EN" "http://www.w3.org/Graphics/SVG/1.1/DTD/svg11.dtd"><svg xmlns="http://www.w3.org/2000/svg" xmlns:xlink="http://www.w3.org/1999/xlink"><defs><clipPath id="clip0"><path fill="#fff" d="M0 0h119v20H0z"/></clipPath></defs><symbol id="inst" viewBox="0 0 13 13"><path d="M10.984.023H1.839A1.785 1.785 0 00.02 1.842v9.144c0 1.033.787 1.82 1.82 1.82h9.144a1.785 1.785 0 001.819-1.82V1.842a1.785 1.785 0 00-1.82-1.82zM6.412 10.249c2.114 0 3.834-1.672 3.834-3.687 0-.345-.049-.738-.147-1.033h1.081v5.212a.493.493 0 01-.491.491H2.134a.493.493 0 01-.491-.491V5.48h1.13a3.742 3.742 0 00-.147 1.032c-.05 2.065 1.672 3.737 3.786 3.737zm0-1.475c-1.377 0-2.459-1.082-2.459-2.41 0-1.326 1.082-2.408 2.459-2.408 1.376 0 2.458 1.082 2.458 2.409 0 1.377-1.082 2.409-2.458 2.409zm4.72-5.26c0 .294-.246.54-.541.54H9.213a.546.546 0 01-.54-.54V2.185c0-.295.245-.54.54-.54h1.377c.295 0 .54.245.54.54v1.327z"/></symbol><symbol id="logo" viewBox="0 0 119 20"><g clip-path="url(#clip0)"><path d="M5.802 1.31v6.07H4.468V2.5H1.334V7.32H0V1.31h5.802zM11.198 1.31c1.393 0 2.437.952 2.437 2.38 0 1.429-1.044 2.322-2.437 2.322H9.051V7.38H7.717V1.309h3.481zM9.051 4.761h2.09c.695 0 1.16-.357 1.16-1.072 0-.714-.465-1.13-1.16-1.13H9.05v2.202zM18.625 7.5c-1.799 0-3.308-1.25-3.308-3.155 0-1.905 1.509-3.155 3.308-3.155 1.798 0 3.307 1.25 3.307 3.155 0 1.905-1.509 3.155-3.307 3.155zm0-1.131c1.102 0 1.972-.774 1.972-2.024s-.87-2.024-1.972-2.024c-1.103 0-1.973.774-1.973 2.024s.87 2.024 1.973 2.024zM29.184 1.31v1.25h-4.003v1.13h3.597v1.25h-3.597v1.19h4.177v1.25h-5.57V1.31h5.396zM32.491 1.31V3.57h1.74l1.51-2.262h1.508l-1.915 2.798 2.031 3.274h-1.567l-1.566-2.62h-1.74v2.56h-1.335V1.31h1.334zM44.908 1.31v1.25h-2.379v4.82h-1.335V2.5h-2.378V1.31h6.092zM47.983 1.31v2.32h3.307V1.31h1.334v6.07H51.29V4.822h-3.307v2.5h-1.335V1.31h1.335zM59.065 1.31l2.495 6.07h-1.393l-.406-.892h-3.655l-.406.893h-1.45l2.552-6.072h2.263zm-2.437 3.928h2.61L58.195 2.5h-.464l-1.102 2.738zM69.044 7.38H67.71V6.013h-2.205L64.81 7.38h-1.45l.928-1.667c-.697-.357-1.16-1.071-1.16-2.024 0-1.428 1.044-2.38 2.436-2.38h3.481v6.07zm-3.48-4.82c-.697 0-1.161.416-1.161 1.13 0 .715.464 1.072 1.16 1.072h2.089V2.559h-2.089zM6.672 12.797v2.262h1.74l1.51-2.261h1.566l-1.915 2.797 2.03 3.274h-1.566l-1.566-2.56H6.73v2.56H5.337v-6.072h1.334zM16.014 18.988c-1.799 0-3.307-1.25-3.307-3.155 0-1.904 1.508-3.154 3.307-3.154 1.798 0 3.307 1.25 3.307 3.154 0 1.905-1.567 3.155-3.307 3.155zm0-1.19c1.102 0 1.973-.774 1.973-2.024s-.87-2.024-1.973-2.024c-1.103 0-1.973.774-1.973 2.024 0 1.31.812 2.024 1.973 2.024zM22.918 12.797l2.089 4.405h.058l2.147-4.405h1.682v6.072H27.56v-4.226h-.058l-1.973 4.166h-1.102l-1.915-4.226h-.058v4.226h-1.277v-6.012h1.741zM36.669 12.797v6.072h-1.335v-4.822h-3.133v4.822h-1.334v-6.072h5.802zM43.11 12.797l2.494 6.072h-1.392l-.407-.893H40.15l-.406.893h-1.45l2.552-6.072h2.263zm-2.438 3.929h2.611l-1.044-2.738h-.464l-1.103 2.738zM48.679 12.797v2.322h3.307v-2.322h1.335v6.072h-1.335v-2.5H48.68v2.5h-1.335v-6.072h1.335zM56.57 12.797v4.227l3.54-4.227h1.276v6.072H60.05v-4.167L56.57 18.87h-1.276v-6.072h1.276zM69.044 18.81H67.71v-1.37h-2.205l-.696 1.37h-1.45l.928-1.667c-.697-.357-1.16-1.072-1.16-2.024 0-1.428 1.044-2.38 2.436-2.38h3.481v6.07zm-3.48-4.762c-.697 0-1.161.416-1.161 1.13 0 .715.464 1.072 1.16 1.072h2.089v-2.202h-2.089zM118.826 7.917h-4.294V19.94h4.294V7.917z"/><path d="M110.123 9.167V5.06c2.727 0 4.932-2.262 4.932-5.06h4.003c-.058 5.06-4.061 9.167-8.935 9.167zM90.048 12.619L81.113 0h-4.294v20h4.294V7.38L90.048 20h4.293V0h-4.293v12.619zM105.887 16.607h-9.515V20h9.515v-3.393zM101.13 15.417c2.495 0 4.525-2.084 4.525-4.643 0-2.56-2.03-4.643-4.525-4.643-2.495 0-4.526 2.083-4.526 4.643 0 2.56 2.03 4.643 4.526 4.643zm0-5.715c.58 0 1.102.477 1.102 1.131 0 .596-.464 1.131-1.102 1.131a1.116 1.116 0 01-1.103-1.13c0-.655.522-1.132 1.103-1.132z"/></g></symbol><symbol id="youtube" viewBox="0 0 14 11"><path d="M13.668 4.221c0-.292-.048-.632-.048-1.02-.049-.39-.097-.779-.146-1.119-.097-.389-.243-.68-.535-.923a1.643 1.643 0 00-.923-.438C10.898.575 9.246.527 7.009.527c-2.236 0-3.937.048-5.007.194-.34.049-.68.195-.923.438a1.94 1.94 0 00-.535.923c-.097.34-.146.68-.146 1.118A7.89 7.89 0 00.35 4.221v2.236c0 .292.048.632.048 1.02.049.39.098.778.146 1.119.097.389.243.68.535.923.243.243.583.39.923.438 1.118.145 2.771.194 5.007.194 2.236 0 3.937-.049 5.007-.194.34-.049.68-.195.923-.438a1.94 1.94 0 00.535-.923c.097-.34.146-.68.146-1.118.048-.39.048-.73.048-1.021V5.339 4.22zM9.585 5.728L5.745 8.11a.371.371 0 01-.243.097c-.097 0-.146 0-.243-.049a.51.51 0 01-.243-.437V2.909a.51.51 0 01.243-.438.442.442 0 01.486 0l3.84 2.382c.146.097.243.243.243.389 0 .146-.097.389-.243.486z"/></symbol></svg>